<svg width="900" height="150" viewBox="0 0 900 150" fill="none" xmlns="http://www.w3.org/2000/svg">
  <defs>
    <linearGradient id="w1" x1="0" y1="0" x2="1" y2="0">
      <stop offset="0" stop-color="#7aa2f7"/>
      <stop offset="0.5" stop-color="#bb9af7"/>
      <stop offset="1" stop-color="#ff79c6"/>
    </linearGradient>
    <linearGradient id="w2" x1="0" y1="0" x2="1" y2="0">
      <stop offset="0" stop-color="#ff79c6"/>
      <stop offset="1" stop-color="#7aa2f7"/>
    </linearGradient>
    <filter id="fglow" x="-50%" y="-50%" width="200%" height="200%">
      <feGaussianBlur stdDeviation="2.5" result="b"/>
      <feMerge><feMergeNode in="b"/><feMergeNode in="SourceGraphic"/></feMerge>
    </filter>
  </defs>
  <rect width="900" height="150" fill="#0b0c18"/>
  <text x="450" y="52" text-anchor="middle" font-family="'JetBrains Mono',ui-monospace,monospace" font-size="15" letter-spacing="4" fill="#7aa2f7" filter="url(#fglow)">make it local · make it fast · make it obvious
    <animate attributeName="opacity" values="0.75;1;0.75" dur="3.5s" repeatCount="indefinite"/>
  </text>
  <g opacity="0.45">
    <path fill="url(#w2)" d="M0 95 Q112 135 225 95 T450 95 T675 95 T900 95 T1125 95 T1350 95 T1575 95 T1800 95 V150 H0 Z">
      <animateTransform attributeName="transform" type="translate" values="-900,0;0,0" dur="11s" repeatCount="indefinite"/>
    </path>
  </g>
  <g opacity="0.85">
    <path fill="url(#w1)" d="M0 105 Q112 65 225 105 T450 105 T675 105 T900 105 T1125 105 T1350 105 T1575 105 T1800 105 V150 H0 Z">
      <animateTransform attributeName="transform" type="translate" values="0,0;-900,0" dur="7s" repeatCount="indefinite"/>
    </path>
  </g>
</svg>
